<mxfile host="app.diagrams.net" modified="2024-08-25T13:53:27.785Z" agent="Mozilla/5.0 (Macintosh; Intel Mac OS X 10_15_7) AppleWebKit/537.36 (KHTML, like Gecko) Chrome/127.0.0.0 Safari/537.36" etag="KbljiDMfu-J2D_NKZ-kH" version="24.6.5" type="device">
  <diagram name="Strona-1" id="4951j1L7ajOh-OKPHVOY">
    <mxGraphModel dx="954" dy="640" grid="1" gridSize="10" guides="1" tooltips="1" connect="1" arrows="1" fold="1" page="1" pageScale="1" pageWidth="1654" pageHeight="1169" math="1" shadow="0">
      <root>
        <mxCell id="0" />
        <mxCell id="1" parent="0" />
        <mxCell id="K1mO4vP1ydDzdlwCk9hv-36" value="" style="rounded=1;whiteSpace=wrap;html=1;fontSize=16;labelBorderColor=none;gradientColor=none;perimeterSpacing=0;" vertex="1" parent="1">
          <mxGeometry x="165" y="135" width="130" height="70" as="geometry" />
        </mxCell>
        <mxCell id="K1mO4vP1ydDzdlwCk9hv-18" style="edgeStyle=orthogonalEdgeStyle;rounded=0;orthogonalLoop=1;jettySize=auto;html=1;exitX=0.5;exitY=1;exitDx=0;exitDy=0;entryX=0.5;entryY=0;entryDx=0;entryDy=0;" edge="1" parent="1" source="K1mO4vP1ydDzdlwCk9hv-1" target="K1mO4vP1ydDzdlwCk9hv-2">
          <mxGeometry relative="1" as="geometry" />
        </mxCell>
        <mxCell id="K1mO4vP1ydDzdlwCk9hv-1" value="&lt;font style=&quot;font-size: 16px;&quot;&gt;RANDOM TURN&lt;/font&gt;" style="rounded=1;whiteSpace=wrap;html=1;fontSize=16;labelBorderColor=none;gradientColor=none;perimeterSpacing=0;" vertex="1" parent="1">
          <mxGeometry x="170" y="140" width="120" height="60" as="geometry" />
        </mxCell>
        <mxCell id="K1mO4vP1ydDzdlwCk9hv-15" style="edgeStyle=orthogonalEdgeStyle;rounded=0;orthogonalLoop=1;jettySize=auto;html=1;exitX=1;exitY=0.5;exitDx=0;exitDy=0;entryX=0;entryY=0.5;entryDx=0;entryDy=0;" edge="1" parent="1" source="K1mO4vP1ydDzdlwCk9hv-2" target="K1mO4vP1ydDzdlwCk9hv-3">
          <mxGeometry relative="1" as="geometry" />
        </mxCell>
        <mxCell id="K1mO4vP1ydDzdlwCk9hv-2" value="&lt;font style=&quot;font-size: 16px;&quot;&gt;FORWARD&lt;/font&gt;" style="rounded=1;whiteSpace=wrap;html=1;fontSize=16;" vertex="1" parent="1">
          <mxGeometry x="170" y="310" width="120" height="60" as="geometry" />
        </mxCell>
        <mxCell id="K1mO4vP1ydDzdlwCk9hv-16" value="" style="edgeStyle=orthogonalEdgeStyle;rounded=0;orthogonalLoop=1;jettySize=auto;html=1;labelBorderColor=none;textShadow=0;textOpacity=60;" edge="1" parent="1" source="K1mO4vP1ydDzdlwCk9hv-3" target="K1mO4vP1ydDzdlwCk9hv-4">
          <mxGeometry relative="1" as="geometry" />
        </mxCell>
        <mxCell id="K1mO4vP1ydDzdlwCk9hv-30" value="&lt;span style=&quot;font-size: 16px;&quot;&gt;$$\neg lost \lor shared &amp;gt; \beta$$&lt;/span&gt;" style="edgeLabel;html=1;align=center;verticalAlign=middle;resizable=0;points=[];labelBackgroundColor=default;" vertex="1" connectable="0" parent="K1mO4vP1ydDzdlwCk9hv-16">
          <mxGeometry x="-0.0455" y="1" relative="1" as="geometry">
            <mxPoint x="1" y="4" as="offset" />
          </mxGeometry>
        </mxCell>
        <mxCell id="K1mO4vP1ydDzdlwCk9hv-20" value="&lt;meta charset=&quot;utf-8&quot;&gt;&lt;span style=&quot;color: rgb(0, 0, 0); font-family: Helvetica; font-size: 16px; font-style: normal; font-variant-ligatures: normal; font-variant-caps: normal; font-weight: 400; letter-spacing: normal; orphans: 2; text-align: center; text-indent: 0px; text-transform: none; widows: 2; word-spacing: 0px; -webkit-text-stroke-width: 0px; white-space: nowrap; background-color: rgb(255, 255, 255); text-decoration-thickness: initial; text-decoration-style: initial; text-decoration-color: initial; display: inline !important; float: none;&quot;&gt;$$lost \land shared \leq \beta$$&lt;/span&gt;" style="edgeStyle=orthogonalEdgeStyle;rounded=0;orthogonalLoop=1;jettySize=auto;html=1;exitX=0.5;exitY=1;exitDx=0;exitDy=0;entryX=1;entryY=0.5;entryDx=0;entryDy=0;" edge="1" parent="1" source="K1mO4vP1ydDzdlwCk9hv-3" target="K1mO4vP1ydDzdlwCk9hv-5">
          <mxGeometry relative="1" as="geometry" />
        </mxCell>
        <mxCell id="K1mO4vP1ydDzdlwCk9hv-31" value="&lt;div&gt;&lt;span style=&quot;font-size: 16px;&quot;&gt;&lt;br&gt;&lt;/span&gt;&lt;/div&gt;" style="edgeLabel;html=1;align=center;verticalAlign=middle;resizable=0;points=[];" vertex="1" connectable="0" parent="K1mO4vP1ydDzdlwCk9hv-20">
          <mxGeometry x="-0.65" y="-1" relative="1" as="geometry">
            <mxPoint x="1" y="-21" as="offset" />
          </mxGeometry>
        </mxCell>
        <mxCell id="K1mO4vP1ydDzdlwCk9hv-3" value="&lt;font style=&quot;font-size: 16px;&quot;&gt;IF&lt;/font&gt;" style="rounded=1;whiteSpace=wrap;html=1;fontSize=16;" vertex="1" parent="1">
          <mxGeometry x="620" y="310" width="120" height="60" as="geometry" />
        </mxCell>
        <mxCell id="K1mO4vP1ydDzdlwCk9hv-25" value="&lt;font style=&quot;font-size: 16px;&quot;&gt;$$k &amp;gt; last\_k$$&lt;/font&gt;" style="edgeStyle=orthogonalEdgeStyle;rounded=0;orthogonalLoop=1;jettySize=auto;html=1;exitX=0;exitY=0.5;exitDx=0;exitDy=0;entryX=1;entryY=0.5;entryDx=0;entryDy=0;" edge="1" parent="1" source="K1mO4vP1ydDzdlwCk9hv-4">
          <mxGeometry x="0.1429" relative="1" as="geometry">
            <mxPoint x="585" y="170" as="sourcePoint" />
            <mxPoint x="295" y="170" as="targetPoint" />
            <mxPoint as="offset" />
          </mxGeometry>
        </mxCell>
        <mxCell id="K1mO4vP1ydDzdlwCk9hv-26" value="&lt;font style=&quot;font-size: 16px;&quot;&gt;$$k \leq last\_k$$&lt;/font&gt;" style="edgeStyle=orthogonalEdgeStyle;rounded=0;orthogonalLoop=1;jettySize=auto;html=1;exitX=0;exitY=0.75;exitDx=0;exitDy=0;entryX=0.75;entryY=0;entryDx=0;entryDy=0;" edge="1" parent="1" source="K1mO4vP1ydDzdlwCk9hv-4" target="K1mO4vP1ydDzdlwCk9hv-2">
          <mxGeometry x="0.0345" relative="1" as="geometry">
            <Array as="points">
              <mxPoint x="510" y="250" />
              <mxPoint x="260" y="250" />
            </Array>
            <mxPoint as="offset" />
          </mxGeometry>
        </mxCell>
        <mxCell id="K1mO4vP1ydDzdlwCk9hv-4" value="&lt;font style=&quot;font-size: 16px;&quot;&gt;ELSE IF&lt;/font&gt;" style="rounded=1;whiteSpace=wrap;html=1;fontSize=16;" vertex="1" parent="1">
          <mxGeometry x="620" y="140" width="120" height="60" as="geometry" />
        </mxCell>
        <mxCell id="K1mO4vP1ydDzdlwCk9hv-21" style="edgeStyle=orthogonalEdgeStyle;rounded=0;orthogonalLoop=1;jettySize=auto;html=1;exitX=0.5;exitY=0;exitDx=0;exitDy=0;entryX=0.5;entryY=1;entryDx=0;entryDy=0;" edge="1" parent="1" source="K1mO4vP1ydDzdlwCk9hv-5" target="K1mO4vP1ydDzdlwCk9hv-2">
          <mxGeometry relative="1" as="geometry" />
        </mxCell>
        <mxCell id="K1mO4vP1ydDzdlwCk9hv-5" value="180&lt;span style=&quot;box-sizing: border-box; margin: 0px; padding: 0px; color: rgb(51, 51, 51); font-family: system-ui, -apple-system, &amp;quot;Segoe UI&amp;quot;, Roboto, Ubuntu, Cantarell, &amp;quot;Noto Sans&amp;quot;, sans-serif; font-size: 18px; text-align: start; background-color: rgb(255, 255, 255);&quot;&gt;Â° TURN&lt;/span&gt;" style="rounded=1;whiteSpace=wrap;html=1;fontSize=16;" vertex="1" parent="1">
          <mxGeometry x="170" y="430" width="120" height="60" as="geometry" />
        </mxCell>
        <mxCell id="K1mO4vP1ydDzdlwCk9hv-33" value="&lt;font style=&quot;font-size: 14px;&quot; color=&quot;#0000ff&quot;&gt;$$t &amp;lt; T$$&lt;/font&gt;" style="text;html=1;align=center;verticalAlign=middle;whiteSpace=wrap;rounded=0;fontSize=14;" vertex="1" parent="1">
          <mxGeometry x="230" y="343" width="60" height="30" as="geometry" />
        </mxCell>
        <mxCell id="K1mO4vP1ydDzdlwCk9hv-35" value="" style="endArrow=classic;html=1;rounded=0;entryX=0;entryY=0.5;entryDx=0;entryDy=0;" edge="1" parent="1">
          <mxGeometry width="50" height="50" relative="1" as="geometry">
            <mxPoint x="114" y="170" as="sourcePoint" />
            <mxPoint x="164" y="170" as="targetPoint" />
          </mxGeometry>
        </mxCell>
      </root>
    </mxGraphModel>
  </diagram>
</mxfile>
